<svg width="284" height="43" viewBox="0 0 284 43" fill="none" xmlns="http://www.w3.org/2000/svg">
<path d="M21.5217 0L43.0303 43L21.5079 13.2583L0.0131836 43L21.5217 0Z" fill="#24456B"/>
<path d="M21.5217 0L43.0303 43L21.5079 13.2583L0.0131836 43L21.5217 0Z" fill="#24456B"/>
<path d="M65.272 25.512H55.912L53.896 30H52.048L59.728 13.2H61.48L69.16 30H67.288L65.272 25.512ZM64.624 24.072L60.592 15.048L56.56 24.072H64.624ZM71.9391 13.2H78.7791C80.5551 13.2 82.1231 13.56 83.4831 14.28C84.8431 14.984 85.8991 15.976 86.6511 17.256C87.4031 18.52 87.7791 19.968 87.7791 21.6C87.7791 23.232 87.4031 24.688 86.6511 25.968C85.8991 27.232 84.8431 28.224 83.4831 28.944C82.1231 29.648 80.5551 30 78.7791 30H71.9391V13.2ZM78.6831 28.464C80.1551 28.464 81.4431 28.176 82.5471 27.6C83.6511 27.008 84.5071 26.2 85.1151 25.176C85.7231 24.136 86.0271 22.944 86.0271 21.6C86.0271 20.256 85.7231 19.072 85.1151 18.048C84.5071 17.008 83.6511 16.2 82.5471 15.624C81.4431 15.032 80.1551 14.736 78.6831 14.736H73.7151V28.464H78.6831ZM103.647 28.464V30H91.7673V13.2H103.287V14.736H93.5433V20.712H102.231V22.224H93.5433V28.464H103.647ZM114.11 13.2C116.254 13.2 117.934 13.712 119.15 14.736C120.366 15.76 120.974 17.168 120.974 18.96C120.974 20.752 120.366 22.16 119.15 23.184C117.934 24.192 116.254 24.696 114.11 24.696H109.598V30H107.822V13.2H114.11ZM114.062 23.136C115.726 23.136 116.998 22.776 117.878 22.056C118.758 21.32 119.198 20.288 119.198 18.96C119.198 17.6 118.758 16.56 117.878 15.84C116.998 15.104 115.726 14.736 114.062 14.736H109.598V23.136H114.062ZM127.516 14.736H121.612V13.2H135.196V14.736H129.292V30H127.516V14.736ZM148.946 30.144C147.698 30.144 146.498 29.944 145.346 29.544C144.21 29.144 143.33 28.616 142.706 27.96L143.402 26.592C144.01 27.2 144.818 27.696 145.826 28.08C146.834 28.448 147.874 28.632 148.946 28.632C150.45 28.632 151.578 28.36 152.33 27.816C153.082 27.256 153.458 26.536 153.458 25.656C153.458 24.984 153.25 24.448 152.834 24.048C152.434 23.648 151.938 23.344 151.346 23.136C150.754 22.912 149.93 22.672 148.874 22.416C147.61 22.096 146.602 21.792 145.85 21.504C145.098 21.2 144.45 20.744 143.906 20.136C143.378 19.528 143.114 18.704 143.114 17.664C143.114 16.816 143.338 16.048 143.786 15.36C144.234 14.656 144.922 14.096 145.85 13.68C146.778 13.264 147.93 13.056 149.306 13.056C150.266 13.056 151.202 13.192 152.114 13.464C153.042 13.72 153.842 14.08 154.514 14.544L153.914 15.96C153.21 15.496 152.458 15.152 151.658 14.928C150.858 14.688 150.074 14.568 149.306 14.568C147.834 14.568 146.722 14.856 145.97 15.432C145.234 15.992 144.866 16.72 144.866 17.616C144.866 18.288 145.066 18.832 145.466 19.248C145.882 19.648 146.394 19.96 147.002 20.184C147.626 20.392 148.458 20.624 149.498 20.88C150.73 21.184 151.722 21.488 152.474 21.792C153.242 22.08 153.89 22.528 154.418 23.136C154.946 23.728 155.21 24.536 155.21 25.56C155.21 26.408 154.978 27.184 154.514 27.888C154.066 28.576 153.37 29.128 152.426 29.544C151.482 29.944 150.322 30.144 148.946 30.144ZM166.424 30.144C164.76 30.144 163.248 29.776 161.888 29.04C160.544 28.288 159.488 27.264 158.72 25.968C157.968 24.672 157.592 23.216 157.592 21.6C157.592 19.984 157.968 18.528 158.72 17.232C159.488 15.936 160.544 14.92 161.888 14.184C163.248 13.432 164.76 13.056 166.424 13.056C168.088 13.056 169.584 13.424 170.912 14.16C172.256 14.896 173.312 15.92 174.08 17.232C174.848 18.528 175.232 19.984 175.232 21.6C175.232 23.216 174.848 24.68 174.08 25.992C173.312 27.288 172.256 28.304 170.912 29.04C169.584 29.776 168.088 30.144 166.424 30.144ZM166.424 28.56C167.752 28.56 168.952 28.264 170.024 27.672C171.096 27.064 171.936 26.232 172.544 25.176C173.152 24.104 173.456 22.912 173.456 21.6C173.456 20.288 173.152 19.104 172.544 18.048C171.936 16.976 171.096 16.144 170.024 15.552C168.952 14.944 167.752 14.64 166.424 14.64C165.096 14.64 163.888 14.944 162.8 15.552C161.728 16.144 160.88 16.976 160.256 18.048C159.648 19.104 159.344 20.288 159.344 21.6C159.344 22.912 159.648 24.104 160.256 25.176C160.88 26.232 161.728 27.064 162.8 27.672C163.888 28.264 165.096 28.56 166.424 28.56ZM179.213 13.2H180.989V28.464H190.397V30H179.213V13.2ZM199.809 30.144C197.633 30.144 195.937 29.52 194.721 28.272C193.505 27.024 192.897 25.208 192.897 22.824V13.2H194.673V22.752C194.673 24.704 195.113 26.16 195.993 27.12C196.873 28.08 198.145 28.56 199.809 28.56C201.489 28.56 202.769 28.08 203.649 27.12C204.529 26.16 204.969 24.704 204.969 22.752V13.2H206.697V22.824C206.697 25.208 206.089 27.024 204.873 28.272C203.673 29.52 201.985 30.144 199.809 30.144ZM214.984 14.736H209.08V13.2H222.664V14.736H216.76V30H214.984V14.736ZM225.502 13.2H227.278V30H225.502V13.2ZM240.088 30.144C238.424 30.144 236.912 29.776 235.552 29.04C234.208 28.288 233.152 27.264 232.384 25.968C231.632 24.672 231.256 23.216 231.256 21.6C231.256 19.984 231.632 18.528 232.384 17.232C233.152 15.936 234.208 14.92 235.552 14.184C236.912 13.432 238.424 13.056 240.088 13.056C241.752 13.056 243.248 13.424 244.576 14.16C245.92 14.896 246.976 15.92 247.744 17.232C248.512 18.528 248.896 19.984 248.896 21.6C248.896 23.216 248.512 24.68 247.744 25.992C246.976 27.288 245.92 28.304 244.576 29.04C243.248 29.776 241.752 30.144 240.088 30.144ZM240.088 28.56C241.416 28.56 242.616 28.264 243.688 27.672C244.76 27.064 245.6 26.232 246.208 25.176C246.816 24.104 247.12 22.912 247.12 21.6C247.12 20.288 246.816 19.104 246.208 18.048C245.6 16.976 244.76 16.144 243.688 15.552C242.616 14.944 241.416 14.64 240.088 14.64C238.76 14.64 237.552 14.944 236.464 15.552C235.392 16.144 234.544 16.976 233.92 18.048C233.312 19.104 233.008 20.288 233.008 21.6C233.008 22.912 233.312 24.104 233.92 25.176C234.544 26.232 235.392 27.064 236.464 27.672C237.552 28.264 238.76 28.56 240.088 28.56ZM266.917 13.2V30H265.453L254.653 16.368V30H252.877V13.2H254.341L265.165 26.832V13.2H266.917ZM277.032 30.144C275.784 30.144 274.584 29.944 273.432 29.544C272.296 29.144 271.416 28.616 270.792 27.96L271.488 26.592C272.096 27.2 272.904 27.696 273.912 28.08C274.92 28.448 275.96 28.632 277.032 28.632C278.536 28.632 279.664 28.36 280.416 27.816C281.168 27.256 281.544 26.536 281.544 25.656C281.544 24.984 281.336 24.448 280.92 24.048C280.52 23.648 280.024 23.344 279.432 23.136C278.84 22.912 278.016 22.672 276.96 22.416C275.696 22.096 274.688 21.792 273.936 21.504C273.184 21.2 272.536 20.744 271.992 20.136C271.464 19.528 271.2 18.704 271.2 17.664C271.2 16.816 271.424 16.048 271.872 15.36C272.32 14.656 273.008 14.096 273.936 13.68C274.864 13.264 276.016 13.056 277.392 13.056C278.352 13.056 279.288 13.192 280.2 13.464C281.128 13.72 281.928 14.08 282.6 14.544L282 15.96C281.296 15.496 280.544 15.152 279.744 14.928C278.944 14.688 278.16 14.568 277.392 14.568C275.92 14.568 274.808 14.856 274.056 15.432C273.32 15.992 272.952 16.72 272.952 17.616C272.952 18.288 273.152 18.832 273.552 19.248C273.968 19.648 274.48 19.96 275.088 20.184C275.712 20.392 276.544 20.624 277.584 20.88C278.816 21.184 279.808 21.488 280.56 21.792C281.328 22.08 281.976 22.528 282.504 23.136C283.032 23.728 283.296 24.536 283.296 25.56C283.296 26.408 283.064 27.184 282.6 27.888C282.152 28.576 281.456 29.128 280.512 29.544C279.568 29.944 278.408 30.144 277.032 30.144Z" fill="#24456B"/>
</svg>
