<svg width="244" height="79" viewBox="0 0 244 79" fill="none" xmlns="http://www.w3.org/2000/svg">
<path d="M13.272 69.512H3.912L1.896 74H0.048L7.728 57.2H9.48L17.16 74H15.288L13.272 69.512ZM12.624 68.072L8.592 59.048L4.56 68.072H12.624ZM19.9391 57.2H26.7791C28.5551 57.2 30.1231 57.56 31.4831 58.28C32.8431 58.984 33.8991 59.976 34.6511 61.256C35.4031 62.52 35.7791 63.968 35.7791 65.6C35.7791 67.232 35.4031 68.688 34.6511 69.968C33.8991 71.232 32.8431 72.224 31.4831 72.944C30.1231 73.648 28.5551 74 26.7791 74H19.9391V57.2ZM26.6831 72.464C28.1551 72.464 29.4431 72.176 30.5471 71.6C31.6511 71.008 32.5071 70.2 33.1151 69.176C33.7231 68.136 34.0271 66.944 34.0271 65.6C34.0271 64.256 33.7231 63.072 33.1151 62.048C32.5071 61.008 31.6511 60.2 30.5471 59.624C29.4431 59.032 28.1551 58.736 26.6831 58.736H21.7151V72.464H26.6831ZM51.6473 72.464V74H39.7673V57.2H51.2873V58.736H41.5433V64.712H50.2313V66.224H41.5433V72.464H51.6473ZM62.1099 57.2C64.2539 57.2 65.9339 57.712 67.1499 58.736C68.3659 59.76 68.9739 61.168 68.9739 62.96C68.9739 64.752 68.3659 66.16 67.1499 67.184C65.9339 68.192 64.2539 68.696 62.1099 68.696H57.5979V74H55.8219V57.2H62.1099ZM62.0619 67.136C63.7259 67.136 64.9979 66.776 65.8779 66.056C66.7579 65.32 67.1979 64.288 67.1979 62.96C67.1979 61.6 66.7579 60.56 65.8779 59.84C64.9979 59.104 63.7259 58.736 62.0619 58.736H57.5979V67.136H62.0619ZM75.5156 58.736H69.6116V57.2H83.1956V58.736H77.2916V74H75.5156V58.736ZM96.9461 74.144C95.6981 74.144 94.4981 73.944 93.3461 73.544C92.2101 73.144 91.3301 72.616 90.7061 71.96L91.4021 70.592C92.0101 71.2 92.8181 71.696 93.8261 72.08C94.8341 72.448 95.8741 72.632 96.9461 72.632C98.4501 72.632 99.5781 72.36 100.33 71.816C101.082 71.256 101.458 70.536 101.458 69.656C101.458 68.984 101.25 68.448 100.834 68.048C100.434 67.648 99.9381 67.344 99.3461 67.136C98.7541 66.912 97.9301 66.672 96.8741 66.416C95.6101 66.096 94.6021 65.792 93.8501 65.504C93.0981 65.2 92.4501 64.744 91.9061 64.136C91.3781 63.528 91.1141 62.704 91.1141 61.664C91.1141 60.816 91.3381 60.048 91.7861 59.36C92.2341 58.656 92.9221 58.096 93.8501 57.68C94.7781 57.264 95.9301 57.056 97.3061 57.056C98.2661 57.056 99.2021 57.192 100.114 57.464C101.042 57.72 101.842 58.08 102.514 58.544L101.914 59.96C101.21 59.496 100.458 59.152 99.6581 58.928C98.8581 58.688 98.0741 58.568 97.3061 58.568C95.8341 58.568 94.7221 58.856 93.9701 59.432C93.2341 59.992 92.8661 60.72 92.8661 61.616C92.8661 62.288 93.0661 62.832 93.4661 63.248C93.8821 63.648 94.3941 63.96 95.0021 64.184C95.6261 64.392 96.4581 64.624 97.4981 64.88C98.7301 65.184 99.7221 65.488 100.474 65.792C101.242 66.08 101.89 66.528 102.418 67.136C102.946 67.728 103.21 68.536 103.21 69.56C103.21 70.408 102.978 71.184 102.514 71.888C102.066 72.576 101.37 73.128 100.426 73.544C99.4821 73.944 98.3221 74.144 96.9461 74.144ZM114.424 74.144C112.76 74.144 111.248 73.776 109.888 73.04C108.544 72.288 107.488 71.264 106.72 69.968C105.968 68.672 105.592 67.216 105.592 65.6C105.592 63.984 105.968 62.528 106.72 61.232C107.488 59.936 108.544 58.92 109.888 58.184C111.248 57.432 112.76 57.056 114.424 57.056C116.088 57.056 117.584 57.424 118.912 58.16C120.256 58.896 121.312 59.92 122.08 61.232C122.848 62.528 123.232 63.984 123.232 65.6C123.232 67.216 122.848 68.68 122.08 69.992C121.312 71.288 120.256 72.304 118.912 73.04C117.584 73.776 116.088 74.144 114.424 74.144ZM114.424 72.56C115.752 72.56 116.952 72.264 118.024 71.672C119.096 71.064 119.936 70.232 120.544 69.176C121.152 68.104 121.456 66.912 121.456 65.6C121.456 64.288 121.152 63.104 120.544 62.048C119.936 60.976 119.096 60.144 118.024 59.552C116.952 58.944 115.752 58.64 114.424 58.64C113.096 58.64 111.888 58.944 110.8 59.552C109.728 60.144 108.88 60.976 108.256 62.048C107.648 63.104 107.344 64.288 107.344 65.6C107.344 66.912 107.648 68.104 108.256 69.176C108.88 70.232 109.728 71.064 110.8 71.672C111.888 72.264 113.096 72.56 114.424 72.56ZM127.213 57.2H128.989V72.464H138.397V74H127.213V57.2ZM147.809 74.144C145.633 74.144 143.937 73.52 142.721 72.272C141.505 71.024 140.897 69.208 140.897 66.824V57.2H142.673V66.752C142.673 68.704 143.113 70.16 143.993 71.12C144.873 72.08 146.145 72.56 147.809 72.56C149.489 72.56 150.769 72.08 151.649 71.12C152.529 70.16 152.969 68.704 152.969 66.752V57.2H154.697V66.824C154.697 69.208 154.089 71.024 152.873 72.272C151.673 73.52 149.985 74.144 147.809 74.144ZM162.984 58.736H157.08V57.2H170.664V58.736H164.76V74H162.984V58.736ZM173.502 57.2H175.278V74H173.502V57.2ZM188.088 74.144C186.424 74.144 184.912 73.776 183.552 73.04C182.208 72.288 181.152 71.264 180.384 69.968C179.632 68.672 179.256 67.216 179.256 65.6C179.256 63.984 179.632 62.528 180.384 61.232C181.152 59.936 182.208 58.92 183.552 58.184C184.912 57.432 186.424 57.056 188.088 57.056C189.752 57.056 191.248 57.424 192.576 58.16C193.92 58.896 194.976 59.92 195.744 61.232C196.512 62.528 196.896 63.984 196.896 65.6C196.896 67.216 196.512 68.68 195.744 69.992C194.976 71.288 193.92 72.304 192.576 73.04C191.248 73.776 189.752 74.144 188.088 74.144ZM188.088 72.56C189.416 72.56 190.616 72.264 191.688 71.672C192.76 71.064 193.6 70.232 194.208 69.176C194.816 68.104 195.12 66.912 195.12 65.6C195.12 64.288 194.816 63.104 194.208 62.048C193.6 60.976 192.76 60.144 191.688 59.552C190.616 58.944 189.416 58.64 188.088 58.64C186.76 58.64 185.552 58.944 184.464 59.552C183.392 60.144 182.544 60.976 181.92 62.048C181.312 63.104 181.008 64.288 181.008 65.6C181.008 66.912 181.312 68.104 181.92 69.176C182.544 70.232 183.392 71.064 184.464 71.672C185.552 72.264 186.76 72.56 188.088 72.56ZM214.917 57.2V74H213.453L202.653 60.368V74H200.877V57.2H202.341L213.165 70.832V57.2H214.917ZM225.032 74.144C223.784 74.144 222.584 73.944 221.432 73.544C220.296 73.144 219.416 72.616 218.792 71.96L219.488 70.592C220.096 71.2 220.904 71.696 221.912 72.08C222.92 72.448 223.96 72.632 225.032 72.632C226.536 72.632 227.664 72.36 228.416 71.816C229.168 71.256 229.544 70.536 229.544 69.656C229.544 68.984 229.336 68.448 228.92 68.048C228.52 67.648 228.024 67.344 227.432 67.136C226.84 66.912 226.016 66.672 224.96 66.416C223.696 66.096 222.688 65.792 221.936 65.504C221.184 65.2 220.536 64.744 219.992 64.136C219.464 63.528 219.2 62.704 219.2 61.664C219.2 60.816 219.424 60.048 219.872 59.36C220.32 58.656 221.008 58.096 221.936 57.68C222.864 57.264 224.016 57.056 225.392 57.056C226.352 57.056 227.288 57.192 228.2 57.464C229.128 57.72 229.928 58.08 230.6 58.544L230 59.96C229.296 59.496 228.544 59.152 227.744 58.928C226.944 58.688 226.16 58.568 225.392 58.568C223.92 58.568 222.808 58.856 222.056 59.432C221.32 59.992 220.952 60.72 220.952 61.616C220.952 62.288 221.152 62.832 221.552 63.248C221.968 63.648 222.48 63.96 223.088 64.184C223.712 64.392 224.544 64.624 225.584 64.88C226.816 65.184 227.808 65.488 228.56 65.792C229.328 66.08 229.976 66.528 230.504 67.136C231.032 67.728 231.296 68.536 231.296 69.56C231.296 70.408 231.064 71.184 230.6 71.888C230.152 72.576 229.456 73.128 228.512 73.544C227.568 73.944 226.408 74.144 225.032 74.144Z" fill="#FF914D"/>
<path d="M121.522 0L143.03 43L121.508 13.2583L100.013 43L121.522 0Z" fill="#FF914D"/>
<path d="M121.522 0L143.03 43L121.508 13.2583L100.013 43L121.522 0Z" fill="#FF914D"/>
</svg>
